#!OML:ASF I:\Actors\actors\Patient Classification 1\Patient 1\Session 1\Subject1.ASF
:FULLY-SPECIFIED
:DEGREES
531
root -0.1003 17.5951 7.96846 9.01764 -2.98847 -8.69223
lowerback 4.06704 3.19988 2.89952
upperback -8.20085 4.65883 0.462383
thorax -10.8475 2.04526 -1.73629
lowerneck -14.8376 -1.72423 2.44862
upperneck 31.8164 -4.27695 3.07
head 13.1801 -1.1587 0.113842
rclavicle -2.3556e-014 -3.10104e-014
rhumerus -8.94362 47.6331 -99.4696
rradius 73.2725
rwrist -15.7979
rhand -14.1317 292.424
rfingers 7.12502
rthumb 12.0021 97.2119
lclavicle -2.3556e-014 -3.10104e-014
lhumerus -26.3977 -18.8656 94.8672
lradius 81.7366
lwrist 1.805
lhand -21.4266 -3.95626
lfingers 7.12502
lthumb 4.96244 25.9656
rfemur -2.15142 23.7125 25.2565
rtibia 1.27824
rfoot -11.1486 -22.7458
rtoes 0.970574
lfemur 6.97771 -41.519 -15.8095
ltibia -4.03974
lfoot -17.2304 49.3246
ltoes 8.14448
532
root -0.100064 17.5957 7.9662 8.93415 -3.07857 -8.64063
lowerback 4.14586 3.18158 2.9604
upperback -8.18191 4.63785 0.416715
thorax -10.8661 2.02684 -1.82052
lowerneck -14.7556 -1.71694 2.51161
upperneck 31.9406 -4.30335 3.11212
head 13.2161 -1.15493 0.116528
rclavicle 2.75317e-014 -7.15625e-015
rhumerus -8.37013 47.3965 -98.8143
rradius 73.8236
rwrist -15.2604
rhand -14.1609 292.832
rfingers 7.12502
rthumb 11.974 96.8052
lclavicle 2.75317e-014 -7.15625e-015
lhumerus -26.598 -19.1098 94.6562
lradius 82.0277
lwrist 1.31297
lhand -20.0926 -4.44417
lfingers 7.12502
lthumb 6.25038 25.4436
rfemur -2.10101 23.791 25.2302
rtibia 1.35359
rfoot -11.165 -22.7478
rtoes 0.957993
lfemur 7.06266 -41.3279 -15.9219
ltibia -4.02876
lfoot -17.1169 49.2146
ltoes 8.07688
533
root -0.0990247 17.596 7.96623 8.85461 -3.15183 -8.66783
lowerback 4.1835 3.15987 3.10497
upperback -8.14332 4.62256 0.419677
thorax -10.8356 2.00828 -1.89616
lowerneck -14.7458 -1.72185 2.52797
upperneck 32.0573 -4.32952 3.13104
head 13.2646 -1.15903 0.117406
rclavicle 2.10712e-014 -1.74931e-014
rhumerus -7.69063 47.3091 -98.0111
rradius 74.2697
rwrist -14.5732
rhand -13.854 293.119
rfingers 7.12502
rthumb 12.2699 96.5008
lclavicle 2.10712e-014 -1.74931e-014
lhumerus -26.6561 -19.2837 94.4298
lradius 82.3201
lwrist 0.629673
lhand -18.4335 -5.00919
lfingers 7.12502
lthumb 7.85193 24.825
rfemur -2.03079 23.8865 25.3052
rtibia 1.42714
rfoot -11.2573 -22.7597
rtoes 0.995282
lfemur 7.18763 -41.1743 -15.9596
ltibia -4.07868
lfoot -17.0592 49.1734
ltoes 8.17116
534
root -0.096541 17.5962 7.96795 8.79004 -3.2278 -8.73226
lowerback 4.19161 3.12507 3.27359
upperback -8.11475 4.5957 0.473035
thorax -10.802 1.98483 -1.92827
lowerneck -14.7253 -1.71523 2.46254
upperneck 32.1786 -4.32451 3.17966
head 13.315 -1.15547 0.149053
rclavicle -1.75924e-014 -8.74653e-015
rhumerus -6.21711 48.7436 -96.1517
rradius 74.6675
rwrist -15.3426
rhand -14.0841 292.992
rfingers 7.12502
rthumb 12.048 96.6411
lclavicle -1.75924e-014 -8.74653e-015
lhumerus -26.6861 -19.2992 94.1677
lradius 82.685
lwrist 0.0352745
lhand -16.4574 -5.64605
lfingers 7.12502
lthumb 9.75886 24.1078
rfemur -1.96547 23.8758 25.4044
rtibia 1.47324
rfoot -11.3104 -22.681
rtoes 1.03918
lfemur 7.32056 -41.0271 -15.9533
ltibia -4.15933
lfoot -17.0651 49.1417
ltoes 8.23674
535
root -0.0932743 17.5958 7.9714 8.75332 -3.36979 -8.73587
lowerback 4.14615 3.09747 3.34387
upperback -8.1094 4.56792 0.532537
thorax -10.77 1.96937 -1.8968
lowerneck -14.7247 -1.69704 2.3457
upperneck 32.356 -4.31813 3.30515
head 13.398 -1.14536 0.220142
rclavicle 3.34952e-014 -1.74931e-014
rhumerus -6.3296 47.7494 -96.3334
rradius 74.7143
rwrist -14.0342
rhand -13.4605 293.72
rfingers 7.12502
rthumb 12.6493 95.8766
lclavicle 3.34952e-014 -1.74931e-014
lhumerus -26.758 -19.0167 93.8216
lradius 83.2256
lwrist -0.536151
lhand -14.0402 -6.26324
lfingers 7.12502
lthumb 12.0904 23.3675
rfemur -1.92963 23.8175 25.4051
rtibia 1.47683
rfoot -11.2013 -22.5488
rtoes 0.746071
lfemur 7.40274 -40.8465 -16.0151
ltibia -4.14575
lfoot -17.2659 49.0462
ltoes 8.54287
536
root -0.0900667 17.5943 7.97601 8.72143 -3.52746 -8.64494
lowerback 4.04281 3.10824 3.33678
upperback -8.10746 4.5767 0.535948
thorax -10.7055 1.97635 -1.88334
lowerneck -14.7094 -1.72967 2.31441
upperneck 32.52 -4.40269 3.40559
head 13.471 -1.16844 0.252741
rclavicle -2.48481e-014 1.35174e-014
rhumerus -5.71482 47.8557 -95.5722
rradius 74.8672
rwrist -14.3125
rhand -13.275 293.874
rfingers 7.12502
rthumb 12.8281 95.7122
lclavicle -2.48481e-014 1.35174e-014
lhumerus -26.8147 -18.2563 93.3991
lradius 83.9141
lwrist -1.44052
lhand -10.5969 -6.8406
lfingers 7.12502
lthumb 15.4088 22.5651
rfemur -1.87398 23.8161 25.3019
rtibia 1.44145
rfoot -11.0802 -22.4792
rtoes 0.417237
lfemur 7.46505 -40.7355 -16.2246
ltibia -4.02998
lfoot -17.6095 48.9842
ltoes 9.03617
537
root -0.085422 17.5915 7.98412 8.66501 -3.70218 -8.50933
lowerback 3.8972 3.14906 3.34355
upperback -8.07761 4.62103 0.504065
thorax -10.578 1.99978 -1.91549
lowerneck -14.6216 -1.75613 2.25808
upperneck 32.5065 -4.44062 3.46281
head 13.4495 -1.1862 0.279978
rclavicle 1.07344e-014 3.97569e-015
rhumerus -5.15595 47.9128 -94.8398
rradius 74.9967
rwrist -14.9084
rhand -13.3137 293.885
rfingers 7.12502
rthumb 12.7908 95.703
lclavicle 1.07344e-014 3.97569e-015
lhumerus -26.7856 -16.7407 92.8742
lradius 84.64
lwrist -2.61231
lhand -6.16688 -7.38678
lfingers 7.12502
lthumb 19.6719 21.6379
rfemur -1.73683 23.7921 25.1557
rtibia 1.3421
rfoot -11.0117 -22.3768
rtoes 0.204685
lfemur 7.68378 -40.8306 -16.6333
ltibia -3.94486
lfoot -18.0624 49.1608
ltoes 9.52099
538
root -0.0809237 17.5893 7.99341 8.58104 -3.95773 -8.4339
lowerback 3.79983 3.20461 3.40912
upperback -8.03831 4.69353 0.483956
thorax -10.4644 2.03228 -1.97349
lowerneck -14.6961 -1.79019 2.06677
upperneck 32.5572 -4.49919 3.6291
head 13.4985 -1.21058 0.368945
rclavicle -3.35946e-014 -1.82882e-014
rhumerus -4.6485 48.0071 -94.1837
rradius 75.0458
rwrist -15.3719
rhand -13.2796 293.876
rfingers 7.12502
rthumb 12.8236 95.7101
lclavicle -3.35946e-014 -1.82882e-014
lhumerus -26.7139 -14.4971 92.1657
lradius 85.4179
lwrist -3.32078
lhand -1.77785 -7.48622
lfingers 7.12502
lthumb 23.8864 21.0483
rfemur -1.56953 23.7152 25.0743
rtibia 1.23256
rfoot -10.8835 -22.1393
rtoes -0.31748
lfemur 8.02537 -40.9241 -17.0438
ltibia -3.93193
lfoot -18.5012 49.4321
ltoes 9.86859
539
root -0.0803086 17.5891 7.99614 8.51197 -4.24885 -8.4752
lowerback 3.82202 3.21376 3.50928
upperback -8.0322 4.71883 0.523449
thorax -10.4659 2.03804 -1.99091
lowerneck -14.6015 -1.67054 2.27999
upperneck 32.4477 -4.35136 3.55563
head 13.422 -1.13458 0.326416
rclavicle 1.47101e-014 -1.74931e-014
rhumerus -4.20831 48.3001 -93.6595
rradius 75.0938
rwrist -15.6369
rhand -13.0127 293.833
rfingers 7.12502
rthumb 13.081 95.7367
lclavicle 1.47101e-014 -1.74931e-014
lhumerus -26.6236 -11.648 91.2174
lradius 86.1692
lwrist -3.18139
lhand 1.38965 -7.13092
lfingers 7.12502
lthumb 26.9207 20.9717
rfemur -1.50162 23.73 25.1221
rtibia 1.23741
rfoot -10.7937 -21.9006
rtoes -0.692057
lfemur 8.25644 -40.8258 -17.1706
ltibia -3.95572
lfoot -18.7872 49.5529
ltoes 10.1892
540
root -0.0811709 17.5883 7.99094 8.4593 -4.63988 -8.42571
lowerback 3.78782 3.18624 3.42721
upperback -7.93708 4.67539 0.60522
thorax -10.3535 2.03118 -1.84749
lowerneck -14.5776 -1.46435 2.42043
upperneck 32.2534 -4.05379 3.48448
head 13.3249 -1.00328 0.319291
rclavicle -3.53837e-014 -1.27222e-014
rhumerus -3.61452 48.8251 -93.1062
rradius 75.1525
rwrist -15.8252
rhand -12.8677 293.879
rfingers 7.12502
rthumb 13.2207 95.6813
lclavicle -3.53837e-014 -1.27222e-014
lhumerus -26.2669 -8.33277 90.1042
lradius 86.6812
lwrist -2.43132
lhand 2.15595 -6.65501
lfingers 7.12502
lthumb 27.6537 21.3324
rfemur -1.56705 23.8768 25.0273
rtibia 1.35345
rfoot -10.7705 -21.686
rtoes -0.825108
lfemur 8.39394 -40.6765 -17.3201
ltibia -3.95914
lfoot -19.0567 49.6987
ltoes 10.6143
541
root -0.0820577 17.5861 7.97598 8.34069 -5.27359 -8.12288
lowerback 3.66635 3.23297 2.99819
upperback -7.64048 4.68698 0.651706
thorax -9.98243 2.08476 -1.54338
lowerneck -14.7046 -1.24844 2.5165
upperneck 31.886 -3.71626 3.38185
head 13.1871 -0.866458 0.31111
rclavicle 3.35449e-014 5.56597e-015
rhumerus -2.65123 49.299 -92.2842
rradius 75.1889
rwrist -15.9609
rhand -12.7269 294.06
rfingers 7.12502
rthumb 13.3564 95.4916
lclavicle 3.35449e-014 5.56597e-015
lhumerus -25.5628 -5.05401 88.9666
lradius 86.9216
lwrist -1.23981
lhand 0.0951082 -6.20545
lfingers 7.12502
lthumb 25.6815 22.0822
rfemur -1.72967 24.1569 24.5913
rtibia 1.5969
rfoot -10.6957 -21.4147
rtoes -1.08133
lfemur 8.55336 -40.4744 -17.7964
ltibia -3.90198
lfoot -19.4532 49.9575
ltoes 11.1121
542
root -0.0809819 17.5836 7.9908 8.44747 -5.40021 -8.85687
lowerback 3.75138 3.32025 4.17259
upperback -7.91356 4.9189 0.607005
thorax -10.2367 2.0934 -2.28071
lowerneck -14.3581 -1.26188 2.68265
upperneck 31.8441 -3.81962 3.54486
head 13.099 -0.875964 0.332602
rclavicle -9.93923e-016 -1.90833e-014
rhumerus -3.37624 48.9174 -92.9542
rradius 75.2971
rwrist -16.0981
rhand -12.6846 294.18
rfingers 7.12502
rthumb 13.3972 95.3693
lclavicle -9.93923e-016 -1.90833e-014
lhumerus -25.8657 -2.89498 87.7067
lradius 86.9968
lwrist -0.107852
lhand -3.78676 -5.85788
lfingers 7.12502
lthumb 21.9587 22.9158
rfemur -1.64079 23.9516 25.4891
rtibia 1.55033
rfoot -10.55 -21.0262
rtoes -1.52545
lfemur 8.63406 -39.9177 -16.9262
ltibia -4.07729
lfoot -19.1915 49.6897
ltoes 10.6932
543
root -0.0794716 17.5807 7.99455 8.46478 -5.67354 -9.22433
lowerback 3.62468 3.3686 4.70136
upperback -7.87528 5.02646 0.673428
thorax -10.0773 2.11289 -2.50227
lowerneck -14.1921 -1.2063 2.68837
upperneck 31.5883 -3.76562 3.69056
head 12.9596 -0.84219 0.395823
rclavicle -4.06515e-014 -3.81667e-014
rhumerus -3.32345 48.9963 -92.9354
rradius 75.3623
rwrist -16.3277
rhand -12.6441 294.159
rfingers 7.12502
rthumb 13.4363 95.3873
lclavicle -4.06515e-014 -3.81667e-014
lhumerus -25.5503 -0.762538 86.5186
lradius 86.5965
lwrist 0.0837035
lhand -8.57059 -5.72549
lfingers 7.12502
lthumb 17.3598 23.5193
rfemur -1.59692 23.8969 25.9337
rtibia 1.57069
rfoot -10.4487 -20.6895
rtoes -1.90337
lfemur 8.73585 -39.5159 -16.5567
ltibia -4.10968
lfoot -19.3507 49.576
ltoes 10.8167
544
root -0.0822626 17.5837 7.99698 8.44019 -6.26461 -8.63646
lowerback 3.47684 3.49911 4.03809
upperback -7.86317 5.12464 0.555778
thorax -10.0074 2.21008 -2.26156
lowerneck -14.0026 -1.13843 2.5489
upperneck 31.3454 -3.67392 3.90678
head 12.8248 -0.799605 0.516705
rclavicle -4.26393e-014 -2.3059e-014
rhumerus -3.39741 49.1145 -92.9639
rradius 75.3417
rwrist -16.2822
rhand -12.3958 294.127
rfingers 7.12502
rthumb 13.6756 95.4041
lclavicle -4.26393e-014 -2.3059e-014
lhumerus -25.1761 0.860114 85.4221
lradius 85.8091
lwrist -0.636271
lhand -13.6728 -5.94633
lfingers 7.12502
lthumb 12.4446 23.6632
rfemur -1.73645 24.104 25.1603
rtibia 1.62858
rfoot -10.3782 -20.4126
rtoes -2.13524
lfemur 8.89139 -39.6266 -17.4598
ltibia -4.00092
lfoot -20.1337 50.0303
ltoes 11.6657
545
root -0.0825427 17.582 7.9971 8.23717 -7.04874 -7.6428
lowerback 3.56966 3.71245 3.0101
upperback -7.88517 5.30579 0.295197
thorax -10.1359 2.36251 -2.00102
lowerneck -13.8186 -1.09857 2.52012
upperneck 31.2292 -3.60054 3.93635
head 12.7373 -0.772661 0.544144
rclavicle 7.55382e-015 3.18055e-015
rhumerus -3.78499 49.0892 -93.2788
rradius 75.2822
rwrist -16.1699
rhand -12.3097 294.188
rfingers 7.12502
rthumb 13.7585 95.3376
lclavicle 7.55382e-015 3.18055e-015
lhumerus -24.9126 1.78201 84.3757
lradius 84.8855
lwrist -1.54845
lhand -18.2852 -6.11461
lfingers 7.12502
lthumb 7.99507 23.7142
rfemur -1.79458 24.2448 23.8894
rtibia 1.67599
rfoot -10.2532 -19.9581
rtoes -2.49794
lfemur 9.40954 -40.0938 -19.1718
ltibia -3.88524
lfoot -21.4513 50.8848
ltoes 13.0088
